<?xml version="1.0" encoding="UTF-8"?>
<svg width="16px" height="16px" viewBox="0 0 16 16" version="1.1" xmlns="http://www.w3.org/2000/svg" xmlns:xlink="http://www.w3.org/1999/xlink">
    <!-- Generator: Sketch 50 (54983) - http://www.bohemiancoding.com/sketch -->
    <title>Icon/Play</title>
    <desc>Created with Sketch.</desc>
    <defs>
        <path d="M4.69140625,11.3085938 C5.6210984,12.2200566 6.72395195,12.6757812 8,12.6757812 C9.27604805,12.6757812 10.3743444,12.2154994 11.2949219,11.2949219 C12.2154994,10.3743444 12.6757812,9.27604805 12.6757812,8 C12.6757812,6.72395195 12.2154994,5.62565564 11.2949219,4.70507812 C10.3743444,3.78450061 9.27604805,3.32421875 8,3.32421875 C6.72395195,3.32421875 5.62565564,3.78450061 4.70507812,4.70507812 C3.78450061,5.62565564 3.32421875,6.72395195 3.32421875,8 C3.32421875,9.27604805 3.77994336,10.3789016 4.69140625,11.3085938 Z M3.87109375,3.8984375 C5.01953699,2.74999426 6.39582531,2.17578125 8,2.17578125 C9.60417469,2.17578125 10.9759058,2.74543701 12.1152344,3.88476562 C13.254563,5.02409424 13.8242188,6.39582531 13.8242188,8 C13.8242188,9.60417469 13.254563,10.9759058 12.1152344,12.1152344 C10.9759058,13.254563 9.60417469,13.8242188 8,13.8242188 C6.39582531,13.8242188 5.02409424,13.254563 3.88476562,12.1152344 C2.74543701,10.9759058 2.17578125,9.60417469 2.17578125,8 C2.17578125,6.39582531 2.74087977,5.02865148 3.87109375,3.8984375 Z M6.82421875,10.625 L6.82421875,5.375 L10.3242188,8 L6.82421875,10.625 Z" id="path-1"></path>
    </defs>
    <g id="Icon/Play" stroke="none" stroke-width="1" fill="none" fill-rule="evenodd">
        <mask id="mask-2" fill="white">
            <use xlink:href="#path-1"></use>
        </mask>
        <use id="Shape" fill="#212121" xlink:href="#path-1"></use>
        <g id="Color/New/Pink" mask="url(#mask-2)" fill="#FE4D9B">
            <rect id="Base" x="0" y="0" width="16" height="16"></rect>
        </g>
    </g>
</svg>